<svg xmlns="http://www.w3.org/2000/svg" viewBox="0 0 40 28" width="40" height="28" focusable="false">
<rect x="0" y="0" width="40" height="2.1538" fill="#B22234"/>
<rect x="0" y="2.1538" width="40" height="2.1538" fill="#FFFFFF"/>
<rect x="0" y="4.3077" width="40" height="2.1538" fill="#B22234"/>
<rect x="0" y="6.4615" width="40" height="2.1538" fill="#FFFFFF"/>
<rect x="0" y="8.6154" width="40" height="2.1538" fill="#B22234"/>
<rect x="0" y="10.7692" width="40" height="2.1538" fill="#FFFFFF"/>
<rect x="0" y="12.9231" width="40" height="2.1538" fill="#B22234"/>
<rect x="0" y="15.0769" width="40" height="2.1538" fill="#FFFFFF"/>
<rect x="0" y="17.2308" width="40" height="2.1538" fill="#B22234"/>
<rect x="0" y="19.3846" width="40" height="2.1538" fill="#FFFFFF"/>
<rect x="0" y="21.5385" width="40" height="2.1538" fill="#B22234"/>
<rect x="0" y="23.6923" width="40" height="2.1538" fill="#FFFFFF"/>
<rect x="0" y="25.8462" width="40" height="2.1538" fill="#B22234"/>
<rect x="0" y="0" width="16" height="15.0769" fill="#3C3B6E"/>
<polygon points="1.792,0.906 1.885,1.197 2.191,1.197 1.943,1.376 2.039,1.666 1.792,1.486 1.545,1.666 1.64,1.376 1.392,1.197 1.698,1.197" fill="#FFFFFF"/>
<polygon points="4.275,0.906 4.369,1.197 4.674,1.197 4.427,1.376 4.522,1.666 4.275,1.486 4.028,1.666 4.123,1.376 3.876,1.197 4.181,1.197" fill="#FFFFFF"/>
<polygon points="6.758,0.906 6.852,1.197 7.158,1.197 6.91,1.376 7.005,1.666 6.758,1.486 6.511,1.666 6.607,1.376 6.359,1.197 6.665,1.197" fill="#FFFFFF"/>
<polygon points="9.242,0.906 9.335,1.197 9.641,1.197 9.393,1.376 9.489,1.666 9.242,1.486 8.995,1.666 9.09,1.376 8.842,1.197 9.148,1.197" fill="#FFFFFF"/>
<polygon points="11.725,0.906 11.819,1.197 12.124,1.197 11.877,1.376 11.972,1.666 11.725,1.486 11.478,1.666 11.573,1.376 11.326,1.197 11.631,1.197" fill="#FFFFFF"/>
<polygon points="14.208,0.906 14.302,1.197 14.608,1.197 14.36,1.376 14.455,1.666 14.208,1.486 13.961,1.666 14.057,1.376 13.809,1.197 14.115,1.197" fill="#FFFFFF"/>
<polygon points="3.53,2.459 3.624,2.75 3.929,2.75 3.682,2.929 3.777,3.219 3.53,3.039 3.283,3.219 3.378,2.929 3.131,2.75 3.436,2.75" fill="#FFFFFF"/>
<polygon points="6.51,2.459 6.604,2.75 6.909,2.75 6.662,2.929 6.757,3.219 6.51,3.039 6.263,3.219 6.358,2.929 6.111,2.75 6.416,2.75" fill="#FFFFFF"/>
<polygon points="9.49,2.459 9.584,2.75 9.889,2.75 9.642,2.929 9.737,3.219 9.49,3.039 9.243,3.219 9.338,2.929 9.091,2.75 9.396,2.75" fill="#FFFFFF"/>
<polygon points="12.47,2.459 12.564,2.75 12.869,2.75 12.622,2.929 12.717,3.219 12.47,3.039 12.223,3.219 12.318,2.929 12.071,2.75 12.376,2.75" fill="#FFFFFF"/>
<polygon points="15.45,2.459 15.544,2.75 15.849,2.75 15.602,2.929 15.697,3.219 15.45,3.039 15.203,3.219 15.298,2.929 15.051,2.75 15.356,2.75" fill="#FFFFFF"/>
<polygon points="1.792,4.012 1.885,4.303 2.191,4.303 1.943,4.482 2.039,4.772 1.792,4.592 1.545,4.772 1.64,4.482 1.392,4.303 1.698,4.303" fill="#FFFFFF"/>
<polygon points="4.275,4.012 4.369,4.303 4.674,4.303 4.427,4.482 4.522,4.772 4.275,4.592 4.028,4.772 4.123,4.482 3.876,4.303 4.181,4.303" fill="#FFFFFF"/>
<polygon points="6.758,4.012 6.852,4.303 7.158,4.303 6.91,4.482 7.005,4.772 6.758,4.592 6.511,4.772 6.607,4.482 6.359,4.303 6.665,4.303" fill="#FFFFFF"/>
<polygon points="9.242,4.012 9.335,4.303 9.641,4.303 9.393,4.482 9.489,4.772 9.242,4.592 8.995,4.772 9.09,4.482 8.842,4.303 9.148,4.303" fill="#FFFFFF"/>
<polygon points="11.725,4.012 11.819,4.303 12.124,4.303 11.877,4.482 11.972,4.772 11.725,4.592 11.478,4.772 11.573,4.482 11.326,4.303 11.631,4.303" fill="#FFFFFF"/>
<polygon points="14.208,4.012 14.302,4.303 14.608,4.303 14.36,4.482 14.455,4.772 14.208,4.592 13.961,4.772 14.057,4.482 13.809,4.303 14.115,4.303" fill="#FFFFFF"/>
<polygon points="3.53,5.565 3.624,5.856 3.929,5.856 3.682,6.035 3.777,6.325 3.53,6.145 3.283,6.325 3.378,6.035 3.131,5.856 3.436,5.856" fill="#FFFFFF"/>
<polygon points="6.51,5.565 6.604,5.856 6.909,5.856 6.662,6.035 6.757,6.325 6.51,6.145 6.263,6.325 6.358,6.035 6.111,5.856 6.416,5.856" fill="#FFFFFF"/>
<polygon points="9.49,5.565 9.584,5.856 9.889,5.856 9.642,6.035 9.737,6.325 9.49,6.145 9.243,6.325 9.338,6.035 9.091,5.856 9.396,5.856" fill="#FFFFFF"/>
<polygon points="12.47,5.565 12.564,5.856 12.869,5.856 12.622,6.035 12.717,6.325 12.47,6.145 12.223,6.325 12.318,6.035 12.071,5.856 12.376,5.856" fill="#FFFFFF"/>
<polygon points="15.45,5.565 15.544,5.856 15.849,5.856 15.602,6.035 15.697,6.325 15.45,6.145 15.203,6.325 15.298,6.035 15.051,5.856 15.356,5.856" fill="#FFFFFF"/>
<polygon points="1.792,7.118 1.885,7.409 2.191,7.409 1.943,7.588 2.039,7.878 1.792,7.698 1.545,7.878 1.64,7.588 1.392,7.409 1.698,7.409" fill="#FFFFFF"/>
<polygon points="4.275,7.118 4.369,7.409 4.674,7.409 4.427,7.588 4.522,7.878 4.275,7.698 4.028,7.878 4.123,7.588 3.876,7.409 4.181,7.409" fill="#FFFFFF"/>
<polygon points="6.758,7.118 6.852,7.409 7.158,7.409 6.91,7.588 7.005,7.878 6.758,7.698 6.511,7.878 6.607,7.588 6.359,7.409 6.665,7.409" fill="#FFFFFF"/>
<polygon points="9.242,7.118 9.335,7.409 9.641,7.409 9.393,7.588 9.489,7.878 9.242,7.698 8.995,7.878 9.09,7.588 8.842,7.409 9.148,7.409" fill="#FFFFFF"/>
<polygon points="11.725,7.118 11.819,7.409 12.124,7.409 11.877,7.588 11.972,7.878 11.725,7.698 11.478,7.878 11.573,7.588 11.326,7.409 11.631,7.409" fill="#FFFFFF"/>
<polygon points="14.208,7.118 14.302,7.409 14.608,7.409 14.36,7.588 14.455,7.878 14.208,7.698 13.961,7.878 14.057,7.588 13.809,7.409 14.115,7.409" fill="#FFFFFF"/>
<polygon points="3.53,8.671 3.624,8.962 3.929,8.962 3.682,9.141 3.777,9.431 3.53,9.251 3.283,9.431 3.378,9.141 3.131,8.962 3.436,8.962" fill="#FFFFFF"/>
<polygon points="6.51,8.671 6.604,8.962 6.909,8.962 6.662,9.141 6.757,9.431 6.51,9.251 6.263,9.431 6.358,9.141 6.111,8.962 6.416,8.962" fill="#FFFFFF"/>
<polygon points="9.49,8.671 9.584,8.962 9.889,8.962 9.642,9.141 9.737,9.431 9.49,9.251 9.243,9.431 9.338,9.141 9.091,8.962 9.396,8.962" fill="#FFFFFF"/>
<polygon points="12.47,8.671 12.564,8.962 12.869,8.962 12.622,9.141 12.717,9.431 12.47,9.251 12.223,9.431 12.318,9.141 12.071,8.962 12.376,8.962" fill="#FFFFFF"/>
<polygon points="15.45,8.671 15.544,8.962 15.849,8.962 15.602,9.141 15.697,9.431 15.45,9.251 15.203,9.431 15.298,9.141 15.051,8.962 15.356,8.962" fill="#FFFFFF"/>
<polygon points="1.792,10.224 1.885,10.515 2.191,10.515 1.943,10.694 2.039,10.984 1.792,10.804 1.545,10.984 1.64,10.694 1.392,10.515 1.698,10.515" fill="#FFFFFF"/>
<polygon points="4.275,10.224 4.369,10.515 4.674,10.515 4.427,10.694 4.522,10.984 4.275,10.804 4.028,10.984 4.123,10.694 3.876,10.515 4.181,10.515" fill="#FFFFFF"/>
<polygon points="6.758,10.224 6.852,10.515 7.158,10.515 6.91,10.694 7.005,10.984 6.758,10.804 6.511,10.984 6.607,10.694 6.359,10.515 6.665,10.515" fill="#FFFFFF"/>
<polygon points="9.242,10.224 9.335,10.515 9.641,10.515 9.393,10.694 9.489,10.984 9.242,10.804 8.995,10.984 9.09,10.694 8.842,10.515 9.148,10.515" fill="#FFFFFF"/>
<polygon points="11.725,10.224 11.819,10.515 12.124,10.515 11.877,10.694 11.972,10.984 11.725,10.804 11.478,10.984 11.573,10.694 11.326,10.515 11.631,10.515" fill="#FFFFFF"/>
<polygon points="14.208,10.224 14.302,10.515 14.608,10.515 14.36,10.694 14.455,10.984 14.208,10.804 13.961,10.984 14.057,10.694 13.809,10.515 14.115,10.515" fill="#FFFFFF"/>
<polygon points="3.53,11.777 3.624,12.068 3.929,12.068 3.682,12.247 3.777,12.537 3.53,12.357 3.283,12.537 3.378,12.247 3.131,12.068 3.436,12.068" fill="#FFFFFF"/>
<polygon points="6.51,11.777 6.604,12.068 6.909,12.068 6.662,12.247 6.757,12.537 6.51,12.357 6.263,12.537 6.358,12.247 6.111,12.068 6.416,12.068" fill="#FFFFFF"/>
<polygon points="9.49,11.777 9.584,12.068 9.889,12.068 9.642,12.247 9.737,12.537 9.49,12.357 9.243,12.537 9.338,12.247 9.091,12.068 9.396,12.068" fill="#FFFFFF"/>
<polygon points="12.47,11.777 12.564,12.068 12.869,12.068 12.622,12.247 12.717,12.537 12.47,12.357 12.223,12.537 12.318,12.247 12.071,12.068 12.376,12.068" fill="#FFFFFF"/>
<polygon points="15.45,11.777 15.544,12.068 15.849,12.068 15.602,12.247 15.697,12.537 15.45,12.357 15.203,12.537 15.298,12.247 15.051,12.068 15.356,12.068" fill="#FFFFFF"/>
<polygon points="1.792,13.33 1.885,13.621 2.191,13.621 1.943,13.8 2.039,14.09 1.792,13.91 1.545,14.09 1.64,13.8 1.392,13.621 1.698,13.621" fill="#FFFFFF"/>
<polygon points="4.275,13.33 4.369,13.621 4.674,13.621 4.427,13.8 4.522,14.09 4.275,13.91 4.028,14.09 4.123,13.8 3.876,13.621 4.181,13.621" fill="#FFFFFF"/>
<polygon points="6.758,13.33 6.852,13.621 7.158,13.621 6.91,13.8 7.005,14.09 6.758,13.91 6.511,14.09 6.607,13.8 6.359,13.621 6.665,13.621" fill="#FFFFFF"/>
<polygon points="9.242,13.33 9.335,13.621 9.641,13.621 9.393,13.8 9.489,14.09 9.242,13.91 8.995,14.09 9.09,13.8 8.842,13.621 9.148,13.621" fill="#FFFFFF"/>
<polygon points="11.725,13.33 11.819,13.621 12.124,13.621 11.877,13.8 11.972,14.09 11.725,13.91 11.478,14.09 11.573,13.8 11.326,13.621 11.631,13.621" fill="#FFFFFF"/>
<polygon points="14.208,13.33 14.302,13.621 14.608,13.621 14.36,13.8 14.455,14.09 14.208,13.91 13.961,14.09 14.057,13.8 13.809,13.621 14.115,13.621" fill="#FFFFFF"/>
</svg>